<svg width="22" height="22" viewBox="0 0 22 22" fill="none" xmlns="http://www.w3.org/2000/svg">
<path d="M11.5 5.51855C14.4531 5.51855 16.8906 7.95605 16.8906 10.9092C16.8906 13.9092 14.4531 16.2998 11.5 16.2998C8.5 16.2998 6.10938 13.9092 6.10938 10.9092C6.10938 7.95605 8.5 5.51855 11.5 5.51855ZM11.5 14.4248C13.4219 14.4248 14.9688 12.8779 14.9688 10.9092C14.9688 8.9873 13.4219 7.44043 11.5 7.44043C9.53125 7.44043 7.98438 8.9873 7.98438 10.9092C7.98438 12.8779 9.57812 14.4248 11.5 14.4248ZM18.3438 5.33105C18.3438 4.62793 17.7812 4.06543 17.0781 4.06543C16.375 4.06543 15.8125 4.62793 15.8125 5.33105C15.8125 6.03418 16.375 6.59668 17.0781 6.59668C17.7812 6.59668 18.3438 6.03418 18.3438 5.33105ZM21.9062 6.59668C22 8.33105 22 13.5342 21.9062 15.2686C21.8125 16.9561 21.4375 18.4092 20.2188 19.6748C19 20.8936 17.5 21.2686 15.8125 21.3623C14.0781 21.4561 8.875 21.4561 7.14062 21.3623C5.45312 21.2686 4 20.8936 2.73438 19.6748C1.51562 18.4092 1.14062 16.9561 1.04688 15.2686C0.953125 13.5342 0.953125 8.33105 1.04688 6.59668C1.14062 4.90918 1.51562 3.40918 2.73438 2.19043C4 0.97168 5.45312 0.59668 7.14062 0.50293C8.875 0.40918 14.0781 0.40918 15.8125 0.50293C17.5 0.59668 19 0.97168 20.2188 2.19043C21.4375 3.40918 21.8125 4.90918 21.9062 6.59668ZM19.6562 17.0967C20.2188 15.7373 20.0781 12.4561 20.0781 10.9092C20.0781 9.40918 20.2188 6.12793 19.6562 4.72168C19.2812 3.83105 18.5781 3.08105 17.6875 2.75293C16.2812 2.19043 13 2.33105 11.5 2.33105C9.95312 2.33105 6.67188 2.19043 5.3125 2.75293C4.375 3.12793 3.67188 3.83105 3.29688 4.72168C2.73438 6.12793 2.875 9.40918 2.875 10.9092C2.875 12.4561 2.73438 15.7373 3.29688 17.0967C3.67188 18.0342 4.375 18.7373 5.3125 19.1123C6.67188 19.6748 9.95312 19.5342 11.5 19.5342C13 19.5342 16.2812 19.6748 17.6875 19.1123C18.5781 18.7373 19.3281 18.0342 19.6562 17.0967Z" fill="#0E6CDD"/>
</svg>
