<svg width="24" height="24" viewBox="0 0 24 24" fill="none" xmlns="http://www.w3.org/2000/svg">
<path d="M11.625 0.28418C18 0.28418 23.25 5.53418 23.25 11.9092C23.25 18.3311 18 23.5342 11.625 23.5342C5.20312 23.5342 0 18.3311 0 11.9092C0 5.53418 5.20312 0.28418 11.625 0.28418ZM16.9688 8.20605C17.0156 8.06543 17.0156 7.9248 16.9688 7.7373C16.9688 7.64355 16.875 7.50293 16.8281 7.45605C16.6875 7.31543 16.4531 7.31543 16.3594 7.31543C15.9375 7.31543 15.2344 7.5498 12 8.90918C10.875 9.37793 8.625 10.3154 5.25 11.8154C4.6875 12.0498 4.40625 12.2373 4.35938 12.4717C4.3125 12.8467 4.92188 12.9873 5.625 13.2217C6.23438 13.4092 7.03125 13.6436 7.45312 13.6436C7.82812 13.6436 8.25 13.5029 8.71875 13.1748C11.8594 11.0186 13.5 9.94043 13.5938 9.94043C13.6875 9.94043 13.7812 9.89355 13.8281 9.94043C13.9219 10.0342 13.9219 10.1279 13.875 10.1748C13.8281 10.4092 10.875 13.1279 10.6875 13.3154C10.0312 13.9717 9.28125 14.3936 10.4531 15.1436C11.4375 15.7998 12 16.2217 13.0312 16.8779C13.6875 17.2998 14.2031 17.8154 14.8594 17.7686C15.1875 17.7217 15.5156 17.4404 15.6562 16.5498C16.0781 14.5342 16.8281 10.0342 16.9688 8.20605Z" fill="#0E6CDD"/>
</svg>
