<svg width="191" height="167" viewBox="0 0 191 167" fill="none" xmlns="http://www.w3.org/2000/svg">
<path d="M1.84219 43.2217C0.644745 44.4448 -0.017781 46.0935 0.000363086 47.8051C0.0185072 49.5167 0.715836 51.1509 1.93894 52.3484C3.16205 53.5458 4.81075 54.2084 6.52234 54.1902C8.23393 54.1721 9.86821 53.4747 11.0657 52.2516C15.211 48.0515 19.6866 44.1906 24.4494 40.7062L14.8712 31.7729C10.2588 35.2712 5.90452 39.0974 1.84219 43.2217Z" fill="#333333"/>
<path d="M188.444 43.2217C163.686 18.4182 130.188 4.31475 95.1448 3.94134C79.8806 3.93764 64.7401 6.67953 50.4465 12.0361C46.0502 13.6769 41.7442 15.5501 37.5465 17.6475L20.5508 1.74835C19.3021 0.576559 17.639 -0.0511659 15.9274 0.00326636C14.2158 0.0576986 12.5959 0.789828 11.4241 2.0386C10.2523 3.28736 9.62462 4.95048 9.67905 6.66207C9.73348 8.37366 10.4656 9.99353 11.7144 11.1653L25.7108 24.2588L35.4825 33.3855L58.9282 55.2832L69.3127 65.0226L97.6281 91.4675L125.524 117.558L160.064 149.84C161.264 150.957 162.842 151.579 164.482 151.581C165.777 151.583 167.042 151.196 168.113 150.469C169.185 149.742 170.012 148.71 170.489 147.506C170.966 146.302 171.069 144.983 170.786 143.72C170.502 142.456 169.845 141.308 168.9 140.423L84.3089 61.3461C87.8967 60.8202 91.5187 60.5615 95.1448 60.5721C97.7201 60.5895 100.293 60.7402 102.853 61.0236C121.31 62.935 138.539 71.1731 151.614 84.3403C152.216 84.9526 152.934 85.439 153.726 85.7712C154.518 86.1034 155.367 86.2748 156.226 86.2753C157.91 86.292 159.533 85.6429 160.741 84.4693C161.349 83.8788 161.835 83.1742 162.171 82.3957C162.507 81.6173 162.686 80.7803 162.698 79.9327C162.71 79.085 162.554 78.2433 162.241 77.4557C161.927 76.6681 161.461 75.9501 160.87 75.3426C143.425 57.8757 119.83 47.9418 95.1448 47.6722C92.9841 47.6722 90.8556 47.7367 88.7916 47.8979C83.366 48.2649 77.988 49.1505 72.7312 50.5424L47.6408 27.0677C52.0343 25.1249 56.5351 23.4344 61.1212 22.0045C72.1365 18.5746 83.6079 16.8337 95.1448 16.8413C126.726 17.1778 156.915 29.8923 179.22 52.2517C180.418 53.4748 182.052 54.1721 183.764 54.1903C185.475 54.2084 187.124 53.5459 188.347 52.3484C189.57 51.151 190.267 49.5167 190.286 47.8051C190.304 46.0935 189.641 44.4448 188.444 43.2217Z" fill="#333333"/>
<path d="M46.8287 61.6372C40.5003 65.4844 34.6632 70.0869 29.446 75.3434C28.3464 76.5836 27.7665 78.1995 27.8265 79.8559C27.8865 81.5122 28.5819 83.0819 29.7683 84.2393C30.9547 85.3967 32.5411 86.053 34.1985 86.0719C35.8558 86.0909 37.4569 85.4711 38.6695 84.3411C43.9961 79.0104 50.0424 74.4512 56.6326 70.7962L46.8287 61.6372Z" fill="#333333"/>
<path d="M80.8203 93.4019C71.8369 96.0105 63.6529 100.834 57.0199 107.431C56.427 108.036 55.9592 108.753 55.6432 109.539C55.3271 110.325 55.1691 111.166 55.1781 112.014C55.1871 112.861 55.3629 113.699 55.6955 114.478C56.0281 115.258 56.5111 115.964 57.1167 116.557C58.3398 117.755 59.9885 118.417 61.7001 118.399C62.5476 118.39 63.385 118.214 64.1645 117.882C64.9441 117.549 65.6505 117.066 66.2434 116.461C73.2793 109.406 82.6222 105.124 92.5593 104.399L80.8203 93.4019Z" fill="#333333"/>
<path d="M95.139 137.04C92.1763 137.043 89.2808 137.924 86.8187 139.572C84.3567 141.22 82.4387 143.561 81.3072 146.299C80.1758 149.038 79.8817 152.05 80.4622 154.955C81.0428 157.861 82.4718 160.529 84.5686 162.622C86.6654 164.715 89.3358 166.139 92.2421 166.715C95.1485 167.29 98.1602 166.991 100.896 165.855C103.633 164.719 105.971 162.797 107.615 160.332C109.258 157.867 110.135 154.97 110.132 152.007C110.123 148.036 108.539 144.231 105.729 141.425C102.918 138.619 99.1102 137.043 95.139 137.04Z" fill="#333333"/>
</svg>
